# AST/ASF file generated using VICON BodyLanguage
# -----------------------------------------------
:version 1.10
:name VICON
:units
  mass 1.0
  length 0.45
  angle deg
:documentation
   .ast/.asf automatically generated from VICON data using
   VICON BodyBuilder and BodyLanguage model FoxedUp or BRILLIANT.MOD
:root
   order TX TY TZ RX RY RZ
   axis XYZ
   position 0 0 0  
   orientation 0 0 0 
:bonedata
  begin
     id 1 
     name lhipjoint
     direction 0.623529 -0.717805 0.309788 
     length 2.23224 
     axis 0 0 0  XYZ
  end
  begin
     id 2 
     name lfemur
     direction 0.34202 -0.939693 0  
     length 7.11402  
     axis 0 0 20  XYZ
    dof rx ry rz
    limits (-160.0 20.0)
           (-70.0 70.0)
           (-60.0 70.0)
  end
  begin
     id 3 
     name ltibia
     direction 0.34202 -0.939693 0   
     length 6.78496   
     axis 0 0 20   XYZ
    dof rx
    limits (-10.0 170.0)
  end
  begin
     id 4 
     name lfoot
     direction 0.125078 -0.343648 0.930732   
     length 1.84054   
     axis -90 7.62852e-016 20   XYZ
    dof rx rz
    limits (-45.0 90.0)
           (-70.0 20.0)
  end
  begin
     id 5 
     name ltoes
     direction 1.53565e-011 -4.21893e-011 1   
     length 0.916474   
     axis -90 7.62852e-016 20   XYZ
    dof rx
    limits (-90.0 20.0)
  end
  begin
     id 6 
     name rhipjoint
     direction -0.564688 -0.757748 0.327026   
     length 2.11457  
     axis 0 0 0  XYZ 
  end
  begin
     id 7 
     name rfemur
     direction -0.34202 -0.939693 0   
     length 7.14609   
     axis 0 0 -20   XYZ
    dof rx ry rz
    limits (-160.0 20.0)
           (-70.0 70.0)
           (-70.0 60.0)
  end
  begin
     id 8 
     name rtibia
     direction -0.34202 -0.939693 0   
     length 6.78101   
     axis 0 0 -20   XYZ
    dof rx
    limits (-10.0 170.0)
 end
 begin
     id 9 
     name rfoot
     direction -0.0992671 -0.272734 0.956955   
     length 1.96168  
     axis -90 -7.62852e-016 -20   XYZ
    dof rx rz
    limits (-45.0 90.0)
           (-20.0 70.0)
  end
  begin
     id 10 
     name rtoes
     direction -1.5356e-011 -4.21891e-011 1   
     length 0.982933   
     axis -90 -7.62852e-016 -20   XYZ
    dof rx
    limits (-90.0 20.0)
  end
  begin
     id 11 
     name lowerback
     direction -0.00596953 0.998668 0.0512524   
     length 1.87557   
     axis 0 0 0   XYZ
    dof rx ry rz
    limits (-20.0 45.0)
           (-30.0 30.0)
           (-30.0 30.0)
  end
  begin
     id 12 
     name upperback
     direction 0.00584879 0.999652 0.0257308   
     length 1.87883   
     axis 0 0 0   XYZ
    dof rx ry rz
    limits (-20.0 45.0)
           (-30.0 30.0)
           (-30.0 30.0)
  end
  begin
     id 13 
     name thorax
     direction 0.010104 0.999947 0.00178881   
     length 1.87779   
     axis 0 0 0   XYZ
    dof rx ry rz
    limits (-20.0 45.0)
           (-30.0 30.0)
           (-30.0 30.0)
  end
  begin
     id 14 
     name lowerneck
     direction 0.0120771 0.995934 -0.0892773   
     length 1.40897   
     axis 0 0 0   XYZ
    dof rx ry rz
    limits (-20.0 45.0)
           (-30.0 30.0)
           (-30.0 30.0)
  end
  begin
     id 15 
     name upperneck
     direction -0.030568 0.999465 -0.0116366   
     length 1.38661   
     axis 0 0 0   XYZ
    dof rx ry rz
    limits (-20.0 45.0)
           (-30.0 30.0)
           (-30.0 30.0)
  end
  begin
     id 16
     name head
     direction -0.0170715 0.999854 -0.00104426  
     length 1.47052  
     axis 0 0 0   XYZ
    dof rx ry rz
    limits (-20.0 45.0)
           (-30.0 30.0)
           (-30.0 30.0)
  end
  begin
     id 17 
     name lclavicle
     direction 0.977763 0.206143 0.038532  
     length 3.02424  
     axis 0 0 0   XYZ
    dof ry rz
    limits (-20.0 10.0)
           (0.0 20.0)
  end
  begin
     id 18 
     name lhumerus
     direction 1 -4.48965e-011 -2.62654e-027   
     length 4.68382   
     axis 180 -30 -90   XYZ
    dof rx ry rz
    limits (-60.0 90.0)
           (-90.0 90.0)
           (-90.0 90.0)
  end
  begin
     id 19
     name lradius
     direction 1 -4.48973e-011 -1.54954e-027   
     length 2.98124   
     axis 180 -30 -90   XYZ
    dof rx
    limits (-10.0 170.0)
  end
  begin
     id 20
     name lwrist
     direction 1 -4.48959e-011 7.20928e-028   
     length 1.49062   
     axis -5.52449e-016 90 90   XYZ
    dof ry
    limits (-180.0 0.0)
 end
  begin
     id 21 
     name lhand
     direction 1 -4.48971e-011 1.44186e-027   
     length 0.707595   
     axis -9.20027e-016 90 90   XYZ
    dof rx rz
    limits (-90.0 90.0)
           (-45.0 45.0)
  end
  begin
     id 22 
     name lfingers
     direction 1 -4.48985e-011 2.88371e-027   
     length 0.570481   
     axis -1.84005e-015 90 90   XYZ
    dof rx
    limits (0.0 90.0)
  end
  begin
     id 23
     name lthumb
     direction 0.707107 -6.34929e-011 0.707107   
     length 0.819101   
     axis -90 45 2.85299e-015   XYZ
    dof rx rz
    limits (-45.0 45.0)
           (-45.0 45.0)
  end
  begin
     id 24 
     name rclavicle
     direction -0.958661 0.284411 -0.00895327   
     length 3.11921  
     axis 0 0 0   XYZ 
    dof ry rz
    limits (-10.0 20.0)
           (-20.0 0.0)
  end
  begin
     id 25 
     name rhumerus
     direction -1 -4.48963e-011 -4.22193e-027  
     length 4.75876   
     axis 180 30 90   XYZ
    dof rx ry rz
    limits (-90.0 60.0)
           (-90.0 90.0)
           (-90.0 90.0)
  end
  begin
     id 26 
     name rradius
     direction -1 -4.48968e-011 -1.07616e-027   
     length 2.93293   
     axis 180 30 90   XYZ
    dof rx
    limits (-10.0 170.0)
  end
  begin
     id 27 
     name rwrist
     direction -1 -4.48965e-011 7.20928e-028   
     length 1.46647   
     axis -5.52449e-016 -90 -90   XYZ
    dof ry
    limits (-180.0 0.0)
  end
  begin
     id 28
     name rhand
     direction -1 -4.48971e-011 1.44186e-027   
     length 0.831748   
     axis -9.20027e-016 -90 -90   XYZ
    dof rx rz
    limits (-90.0 90.0)
           (-45.0 45.0)
  end
  begin
     id 29
     name rfingers
     direction -1 -4.48961e-011 2.88371e-027   
     length 0.670577   
     axis -1.84005e-015 -90 -90   XYZ
    dof rx
    limits (0.0 90.0)
  end
  begin
     id 30
     name rthumb
     direction -0.707107 -6.34929e-011 0.707107   
     length 0.962818   
     axis -90 -45 -2.85299e-015   XYZ
    dof rx rz
    limits (-45.0 45.0)
           (-45.0 45.0)
  end
:hierarchy
  begin
    root lhipjoint rhipjoint lowerback
    lhipjoint lfemur
    lfemur ltibia
    ltibia lfoot
    lfoot ltoes
    rhipjoint rfemur
    rfemur rtibia
    rtibia rfoot
    rfoot rtoes
    lowerback upperback
    upperback thorax
    thorax lowerneck lclavicle rclavicle
    lowerneck upperneck
    upperneck head
    lclavicle lhumerus
    lhumerus lradius
    lradius lwrist
    lwrist lhand lthumb
    lhand lfingers
    rclavicle rhumerus
    rhumerus rradius
    rradius rwrist
    rwrist rhand rthumb
    rhand rfingers
  end

#!OML:ASF E:\id_vita\Project 1\Capture day 1\Session 1\Female.ASF
:FULLY-SPECIFIED
:DEGREES
120
root 47.2569 16.4391 -2.41065 -155.816 -81.9039 -170.024
lowerback 1.48591 1.8461 -3.8858
upperback 0.827565 2.40388 0.130927
thorax -0.148685 1.18889 2.26865
lowerneck -3.37 2.8011 -2.45093
upperneck -11.5272 3.52605 -0.198634
head -3.15149 1.7534 0.298917
rclavicle -2.49475e-014 1.39646e-014
rhumerus 5.54886 15.4811 -97.9634
rradius 33.2727
rwrist 10.021
rhand -29.3316 17.6127
rfingers 7.12502
rthumb -2.67197 -12.3503
lclavicle -2.49475e-014 1.39646e-014
lhumerus -5.23938 13.9555 97.5477
lradius 40.6122
lwrist -16.2369
lhand -12.725 21.2883
lfingers 7.12502
lthumb 13.3583 50.8401
rfemur -42.9693 -1.27439 31.5618
rtibia 24.7047
rfoot -12.1311 -10.7629
rtoes 1.63295
lfemur -68.1144 -14.9852 15.4219
ltibia 26.7737
lfoot 2.57179 29.3833
ltoes 8.07513
121
root 47.2411 16.4397 -2.40892 -155.893 -81.8428 -169.594
lowerback 1.59351 1.91122 -3.89013
upperback 0.878061 2.4859 0.130936
thorax -0.162885 1.229 2.26647
lowerneck -3.39819 2.80103 -2.40384
upperneck -11.6831 3.5156 -0.253613
head -3.19774 1.74642 0.272653
rclavicle -2.91716e-014 -5.51627e-015
rhumerus 6.33388 15.9276 -97.8711
rradius 33.0878
rwrist 10.298
rhand -29.7897 17.9908
rfingers 7.12502
rthumb -3.1144 -11.9663
lclavicle -2.91716e-014 -5.51627e-015
lhumerus -4.63178 13.3797 97.86
lradius 40.9122
lwrist -16.752
lhand -13.4974 21.5979
lfingers 7.12502
lthumb 12.6137 51.1971
rfemur -43.1965 -1.23621 31.6503
rtibia 24.5382
rfoot -12.1346 -10.6663
rtoes 1.21659
lfemur -68.611 -14.7762 15.6259
ltibia 26.8858
lfoot 3.4565 29.8699
ltoes 11.7801
122
root 47.2243 16.4385 -2.40525 -155.845 -81.9353 -169.352
lowerback 1.72195 1.89471 -3.79416
upperback 1.02945 2.46036 0.111141
thorax -0.0728891 1.21168 2.19185
lowerneck -3.38246 2.87514 -2.32942
upperneck -12.1197 3.59192 -0.331782
head -3.34989 1.77997 0.229708
rclavicle 4.63665e-014 3.95085e-014
rhumerus 7.2301 16.2349 -97.8632
rradius 32.9521
rwrist 10.5268
rhand -29.8862 18.3838
rfingers 7.12502
rthumb -3.20753 -11.5718
lclavicle 4.63665e-014 3.95085e-014
lhumerus -3.75084 13 98.0945
lradius 41.0642
lwrist -17.1323
lhand -14.024 20.3986
lfingers 7.12502
lthumb 12.106 50.0284
rfemur -43.3677 -1.22642 31.6916
rtibia 24.3857
rfoot -12.0535 -10.6504
rtoes 1.3278
lfemur -69.1157 -14.7077 15.8851
ltibia 26.9884
lfoot 4.4416 29.9699
ltoes 10.4369
123
root 47.2056 16.4358 -2.40445 -156.348 -81.8167 -168.519
lowerback 1.83976 1.96714 -3.7561
upperback 1.08061 2.55212 0.101877
thorax -0.0903681 1.25678 2.15568
lowerneck -3.07163 2.94582 -2.32968
upperneck -12.6571 3.66091 -0.385576
head -3.59597 1.81427 0.201672
rclavicle -1.13307e-014 1.93815e-014
rhumerus 7.87632 16.4746 -97.8634
rradius 32.9661
rwrist 10.9266
rhand -29.9175 18.4318
rfingers 7.12502
rthumb -3.2378 -11.5234
lclavicle -1.13307e-014 1.93815e-014
lhumerus -3.06156 12.5533 98.327
lradius 41.2556
lwrist -17.254
lhand -14.3257 19.8557
lfingers 7.12502
lthumb 11.815 49.5024
rfemur -43.5528 -0.9801 31.7283
rtibia 24.2477
rfoot -11.97 -10.586
rtoes 1.64492
lfemur -69.4846 -14.4332 16.0914
ltibia 27.0798
lfoot 5.90472 29.846
ltoes 10.9793
124
root 47.1857 16.4339 -2.40376 -156.988 -81.5559 -167.523
lowerback 2.1441 1.99431 -3.89949
upperback 1.08137 2.57191 0.208832
thorax -0.27225 1.26904 2.33366
lowerneck -3.48462 3.02698 -2.57637
upperneck -12.6893 3.77072 -0.386425
head -3.53847 1.87554 0.247413
rclavicle -6.26172e-015 1.65488e-014
rhumerus 8.46682 17.2972 -97.7285
rradius 33.0428
rwrist 11.2797
rhand -30.0259 18.5382
rfingers 7.12502
rthumb -3.34245 -11.4153
lclavicle -6.26172e-015 1.65488e-014
lhumerus -2.45971 12.3534 98.5896
lradius 41.6162
lwrist -17.4067
lhand -14.4052 20.623
lfingers 7.12502
lthumb 11.7383 50.2741
rfemur -43.7512 -0.755103 31.8355
rtibia 24.0995
rfoot -11.9397 -10.4262
rtoes 1.24477
lfemur -69.8024 -14.0131 16.2756
ltibia 27.198
lfoot 7.06319 29.756
ltoes 13.0938
125
root 47.161 16.4321 -2.39853 -157.705 -81.3264 -166.556
lowerback 2.45736 2.13252 -3.85134
upperback 1.08232 2.74151 0.166359
thorax -0.454093 1.35672 2.24564
lowerneck -3.46867 2.96759 -2.48471
upperneck -12.9199 3.6773 -0.415418
head -3.61857 1.82346 0.222245
rclavicle -5.66039e-014 -1.01877e-014
rhumerus 8.99725 17.5349 -97.7354
rradius 33.0231
rwrist 11.6761
rhand -30.1314 18.866
rfingers 7.12502
rthumb -3.44433 -11.0859
lclavicle -5.66039e-014 -1.01877e-014
lhumerus -2.25042 11.4682 98.5857
lradius 42.2484
lwrist -17.1409
lhand -14.4535 20.6656
lfingers 7.12502
lthumb 11.6918 50.3194
rfemur -43.8352 -0.678199 31.9896
rtibia 23.9463
rfoot -11.9095 -10.217
rtoes 0.989331
lfemur -70.0699 -13.6603 16.4705
ltibia 27.3577
lfoot 7.6266 29.7987
ltoes 15.7559
126
root 47.135 16.429 -2.39418 -157.983 -81.0601 -166.003
lowerback 2.59138 2.17434 -3.58293
upperback 1.18018 2.79531 -0.0847608
thorax -0.407296 1.38106 1.83361
lowerneck -3.4507 2.9956 -2.36579
upperneck -13.2873 3.71473 -0.277012
head -3.75329 1.82753 0.24322
rclavicle 4.55217e-014 2.73577e-014
rhumerus 9.83499 17.7187 -98.1321
rradius 32.7653
rwrist 11.9669
rhand -30.1013 19.2793
rfingers 7.12502
rthumb -3.41529 -10.6731
lclavicle 4.55217e-014 2.73577e-014
lhumerus -1.59422 10.897 98.243
lradius 42.375
lwrist -16.828
lhand -14.6157 19.5679
lfingers 7.12502
lthumb 11.5353 49.2305
rfemur -43.9511 -0.509733 32.0303
rtibia 23.8242
rfoot -11.9073 -10.0666
rtoes 1.16733
lfemur -70.3145 -13.3173 16.5737
ltibia 27.502
lfoot 8.26277 29.6705
ltoes 17.3525
